<svg width="199" height="56" viewBox="0 0 199 56" fill="none" xmlns="http://www.w3.org/2000/svg">
  <path
    d="M5.24921 4.66675V51.0223H51.9437V4.66675H5.24921ZM46.1461 45.189H11.0468V10.4223H22.7205V33.6001H46.0677V45.189H46.1461Z"
    fill="#FFC733" />
  <path d="M51.9437 4.66675H40.2701V16.2556H51.9437V4.66675Z" fill="#F87F52" />
  <path
    d="M62.9906 30.0222V4.58887H68.8665V14.4666H70.7469C71.8437 14.4666 72.7055 14.2333 73.3323 13.8444C73.9591 13.4555 74.5075 12.6 74.8992 11.4333L77.0929 4.58887H83.2039L80.9319 11.9778C80.5402 13.2222 79.9917 14.3111 79.4433 15.0889C78.8165 15.9444 78.1114 16.4889 77.328 16.7222C78.4248 17.0333 79.2083 17.6555 79.835 18.5889C80.4618 19.4444 80.9319 20.5333 81.3236 21.7778L83.7524 29.9444H77.2496L75.2126 22.6333C74.8992 21.3889 74.3508 20.5333 73.724 20.1444C73.0189 19.7555 72.1571 19.6 71.0602 19.6H68.9449V29.9444H62.9906V30.0222Z"
    fill="#31303E" />
  <path
    d="M90.4902 25.8222H92.6055C93.3106 25.8222 93.7807 25.6666 94.1724 25.3555C94.4858 25.0444 94.7992 24.6555 94.9559 24.2666L95.191 23.6444L87.513 4.58887H93.7024L95.9744 11.5111L97.9331 17.7333H98.0898L100.44 11.0444L102.712 4.58887H108.588L101.224 23.2555C100.675 24.7333 100.127 25.9778 99.5784 26.9111C99.0299 27.8444 98.4032 28.6222 97.7764 29.0889C97.1496 29.6333 96.4445 29.9444 95.5827 30.1778C94.7992 30.4111 93.8591 30.4889 92.8406 30.4889H90.4118V25.8222H90.4902Z"
    fill="#31303E" />
  <path
    d="M122.534 22.0111L117.911 30.0222H111.252L119.4 16.9555L111.722 4.58887H118.382L122.534 11.9778L126.686 4.58887H133.346L125.668 16.9555L133.816 30.0222H127.156L122.534 22.0111Z"
    fill="#31303E" />
  <path d="M151.6 30.0222V19.7555H143.452V30.0222H137.576V4.58887H143.452V14.4666H151.6V4.58887H157.555V30.0222H151.6Z"
    fill="#31303E" />
  <path
    d="M178.552 15.0111L168.758 30.0222H163.509V4.58887H169.385V19.8333H169.463L179.335 4.58887H184.663V30.0222H178.787V15.0111H178.552Z"
    fill="#31303E" />
  <path
    d="M63.0689 34.1445H74.2724V37.6445H66.9862V40.3668H70.4335C72.2354 40.3668 73.5673 40.8334 74.5858 41.7668C75.6043 42.7001 76.0744 44.0223 76.0744 45.6556C76.0744 46.2779 75.9961 46.9001 75.761 47.5223C75.526 48.1445 75.2126 48.7668 74.8209 49.2334C74.3508 49.7779 73.8024 50.1668 73.0972 50.4779C72.3921 50.789 71.5303 50.9445 70.5118 50.9445H62.9906V34.1445H63.0689ZM66.9862 47.6001H70.0417C70.7469 47.6001 71.2953 47.4445 71.7654 47.0556C72.1571 46.6668 72.3921 46.2001 72.3921 45.7334C72.3921 45.189 72.1571 44.7223 71.7654 44.4112C71.3736 44.0223 70.7469 43.8668 70.0417 43.8668H66.9862V47.6001Z"
    fill="#31303E" />
  <path
    d="M78.3465 34.1445H90.2551V37.6445H82.2638V40.8334H89.0799V44.3334H82.2638V47.6779H90.2551V51.1779H78.3465V34.1445Z"
    fill="#31303E" />
  <path
    d="M99.265 37.6445V41.689C99.265 43.0112 99.1866 44.2556 99.0299 45.4223C98.8732 46.589 98.5599 47.6001 98.1681 48.4556C97.698 49.3112 97.0713 50.0112 96.2095 50.5556C95.3476 51.1001 94.2508 51.4112 92.7622 51.4112L92.1354 48.3001C92.9189 48.0668 93.5457 47.8334 93.9374 47.4445C94.3291 47.0556 94.7209 46.6668 94.8776 46.1223C95.1126 45.5779 95.1909 45.0334 95.2693 44.3334C95.3476 43.6334 95.3476 42.8556 95.3476 41.9223V34.1445H106.943V51.1001H102.947V37.6445H99.265Z"
    fill="#31303E" />
  <path
    d="M119.792 47.7556H114.307L113.289 51.1001H109.058L115.091 34.1445H119.165L125.119 51.1001H120.889L119.792 47.7556ZM115.326 44.5668H118.852L118.538 43.4001L117.206 38.7334H117.128L115.796 43.4001L115.326 44.5668Z"
    fill="#31303E" />
  <path
    d="M134.599 34.1445C135.539 34.1445 136.401 34.3001 137.028 34.6112C137.733 34.9223 138.281 35.3112 138.673 35.8556C139.065 36.4001 139.378 36.9445 139.613 37.5668C139.848 38.189 139.927 38.889 139.927 39.589C139.927 40.289 139.77 40.9112 139.535 41.6112C139.3 42.2334 138.908 42.8556 138.438 43.3223C137.968 43.8668 137.42 44.2556 136.715 44.5668C136.009 44.8779 135.226 45.0334 134.364 45.0334H130.995V51.1779H127.078V34.1445H134.599ZM131.074 41.4556H133.972C134.756 41.4556 135.226 41.3001 135.539 40.9112C135.853 40.5223 136.009 40.0556 136.009 39.589C136.009 39.0445 135.853 38.5779 135.539 38.2668C135.226 37.8779 134.678 37.7223 133.972 37.7223H131.074V41.4556Z"
    fill="#31303E" />
  <path
    d="M142.747 48.2999H144.157C144.628 48.2999 144.941 48.2222 145.176 47.9888C145.411 47.7555 145.568 47.5222 145.646 47.2888L145.803 46.8999L140.71 34.2222H144.784L146.273 38.8111L147.605 42.9333H147.761L149.328 38.4999L150.817 34.2222H154.734L149.877 46.6666C149.485 47.6777 149.093 48.4555 148.78 49.0777C148.388 49.6999 147.996 50.1666 147.605 50.5555C147.213 50.9444 146.665 51.1777 146.194 51.2555C145.646 51.4111 145.098 51.4888 144.393 51.4888H142.747V48.2999Z"
    fill="#31303E" />
  <path
    d="M166.173 38.7333C165.624 38.2667 165.076 37.9555 164.449 37.8C163.901 37.6444 163.274 37.5667 162.726 37.5667C162.412 37.5667 162.099 37.6444 161.707 37.7222C161.394 37.8 161.08 37.9555 160.845 38.1889C160.61 38.4222 160.375 38.6555 160.219 38.9666C160.062 39.2778 159.983 39.7444 159.983 40.2111V45.0333C159.983 45.5 160.062 45.9667 160.219 46.2778C160.375 46.5889 160.61 46.9 160.924 47.0555C161.159 47.2889 161.472 47.4444 161.864 47.5222C162.177 47.6 162.491 47.6778 162.882 47.6778C163.431 47.6778 163.979 47.6 164.528 47.4444C165.076 47.2889 165.703 46.9778 166.33 46.5111L168.21 49.5444C167.505 50.0889 166.721 50.5555 165.781 50.8667C164.841 51.1778 163.901 51.3333 162.882 51.3333C162.099 51.3333 161.315 51.2555 160.532 51.0222C159.748 50.7889 159.043 50.4778 158.417 50.0111C157.79 49.5444 157.241 49 156.85 48.3C156.458 47.6 156.223 46.8222 156.223 45.8889V39.5111C156.223 38.5778 156.38 37.8 156.771 37.1C157.163 36.4 157.633 35.8555 158.26 35.3889C158.887 34.9222 159.592 34.6111 160.375 34.3778C161.159 34.1444 161.942 34.0667 162.726 34.0667C163.744 34.0667 164.684 34.2222 165.703 34.4555C166.643 34.7667 167.505 35.1555 168.21 35.7778L166.173 38.7333Z"
    fill="#31303E" />
  <path
    d="M180.432 41.0668L173.929 51.1001H170.404V34.1445H174.321V44.2556H174.399L180.98 34.1445H184.506V51.1001H180.589V41.0668H180.432Z"
    fill="#31303E" />
  <path
    d="M191.244 11.2779C190.774 11.2779 190.304 11.2001 189.912 11.0445C189.52 10.889 189.128 10.6556 188.815 10.3445C188.502 10.0334 188.267 9.7223 188.11 9.33342C187.953 8.94453 187.875 8.47786 187.875 8.01119C187.875 7.54453 187.953 7.07786 188.11 6.68897C188.267 6.30008 188.502 5.91119 188.815 5.60008C189.128 5.28897 189.442 5.05564 189.833 4.90008C190.225 4.74453 190.695 4.66675 191.165 4.66675C191.635 4.66675 192.106 4.74453 192.497 4.90008C192.889 5.05564 193.281 5.28897 193.516 5.60008C193.829 5.91119 194.064 6.2223 194.221 6.68897C194.378 7.07786 194.456 7.54453 194.456 8.01119C194.456 8.47786 194.378 8.94453 194.221 9.33342C194.064 9.7223 193.829 10.1112 193.516 10.3445C193.202 10.6556 192.889 10.889 192.419 11.0445C192.106 11.2001 191.714 11.2779 191.244 11.2779ZM191.244 5.28897C190.852 5.28897 190.539 5.36675 190.225 5.5223C189.912 5.67786 189.598 5.83341 189.363 6.06675C189.128 6.30008 188.972 6.61119 188.815 6.9223C188.658 7.23341 188.658 7.6223 188.658 8.01119C188.658 8.40008 188.737 8.71119 188.815 9.0223C188.972 9.33342 189.128 9.64453 189.363 9.87786C189.598 10.1112 189.912 10.2667 190.225 10.4223C190.539 10.5779 190.852 10.6556 191.244 10.6556C191.635 10.6556 191.949 10.5779 192.262 10.4223C192.576 10.2667 192.889 10.1112 193.124 9.87786C193.359 9.64453 193.516 9.33342 193.672 9.0223C193.829 8.71119 193.907 8.3223 193.907 8.01119C193.907 7.6223 193.829 7.23341 193.672 6.9223C193.516 6.61119 193.359 6.30008 193.124 6.06675C192.889 5.83341 192.576 5.67786 192.262 5.5223C191.949 5.36675 191.635 5.28897 191.244 5.28897ZM191.322 8.3223H190.695V9.87786H189.99V6.06675H191.557C191.87 6.06675 192.184 6.14453 192.341 6.37786C192.576 6.61119 192.654 6.84453 192.654 7.15564C192.654 7.38897 192.576 7.6223 192.497 7.77786C192.341 7.93341 192.184 8.08897 191.949 8.16675L192.811 9.80008H192.027L191.322 8.3223ZM190.695 6.68897V7.6223H191.479C191.635 7.6223 191.792 7.54453 191.87 7.46675C191.949 7.38897 192.027 7.23342 192.027 7.07786C192.027 6.76675 191.87 6.61119 191.479 6.61119H190.695V6.68897Z"
    fill="#31303E" />
</svg>